<svg xmlns="http://www.w3.org/2000/svg" viewBox="0 0 64 64" role="img" aria-label="ExpenseVision">
  <defs>
    <linearGradient id="g" x1="0" y1="0" x2="1" y2="1">
      <stop offset="0" stop-color="#34D399"/>
      <stop offset="1" stop-color="#059669"/>
    </linearGradient>
  </defs>
  <rect width="64" height="64" rx="14" fill="#05070B"/>
  <!-- Receipt shape -->
  <rect x="16" y="10" width="32" height="40" rx="4" fill="none" stroke="url(#g)" stroke-width="3.5"/>
  <!-- Zigzag bottom edge -->
  <path d="M16 46 L21 50 L26 46 L31 50 L36 46 L41 50 L48 46" fill="none" stroke="url(#g)" stroke-width="3.5" stroke-linecap="round" stroke-linejoin="round"/>
  <!-- Dollar sign -->
  <path d="M32 19 L32 21 M32 33 L32 35" stroke="url(#g)" stroke-width="3" stroke-linecap="round"/>
  <path d="M27 23c0-2.2 2.2-3 5-3s5 .8 5 3c0 2.5-10 2.5-10 5 0 2.2 2.2 3 5 3s5-.8 5-3" fill="none" stroke="url(#g)" stroke-width="3" stroke-linecap="round" stroke-linejoin="round"/>
</svg>
